<?xml version="1.0" encoding="UTF-8"?>
<svg xmlns="http://www.w3.org/2000/svg" xmlns:xlink="http://www.w3.org/1999/xlink" viewBox="0 0 32 32" width="32px" height="32px">
<g id="surface3527558">
<path style=" stroke:none;fill-rule:nonzero;fill:rgb(0%,0%,0%);fill-opacity:1;" d="M 16.054688 4.003906 C 15.925781 3.988281 15.757812 4.015625 15.566406 4.167969 L 6.164062 11.742188 C 5.972656 11.890625 5.945312 12.148438 6.109375 12.3125 L 8.035156 14.261719 L 15.84375 21.976562 C 16.011719 22.140625 16.300781 22.152344 16.492188 21.996094 L 18.777344 20.183594 L 18.761719 20.171875 L 19.113281 19.890625 C 19.300781 19.742188 19.320312 19.484375 19.152344 19.320312 L 16.554688 16.777344 C 16.390625 16.613281 16.097656 16.605469 15.90625 16.753906 L 15.90625 16.757812 C 15.714844 16.910156 15.425781 16.902344 15.257812 16.742188 L 10.953125 12.449219 C 10.792969 12.285156 10.816406 12.035156 11.003906 11.878906 L 15.199219 8.535156 C 15.386719 8.386719 15.667969 8.398438 15.832031 8.5625 L 23.125 15.992188 C 23.296875 16.15625 23.582031 16.164062 23.765625 16.015625 L 25.847656 14.34375 C 26.035156 14.195312 26.050781 13.9375 25.882812 13.773438 L 16.3125 4.113281 C 16.277344 4.085938 16.183594 4.023438 16.054688 4.003906 Z M 15.492188 9.847656 C 15.378906 9.84375 15.261719 9.878906 15.167969 9.953125 L 12.5625 11.992188 C 12.371094 12.140625 12.351562 12.398438 12.511719 12.5625 L 15.609375 15.566406 C 15.773438 15.730469 16.058594 15.738281 16.246094 15.589844 L 16.25 15.585938 C 16.4375 15.4375 16.726562 15.445312 16.886719 15.605469 L 20.707031 19.40625 C 20.871094 19.570312 20.855469 19.828125 20.667969 19.976562 L 16.429688 23.4375 C 16.238281 23.589844 15.953125 23.582031 15.78125 23.417969 L 8.875 16.523438 C 8.714844 16.359375 8.433594 16.351562 8.242188 16.503906 L 6.160156 18.132812 C 5.96875 18.28125 5.945312 18.539062 6.105469 18.703125 L 15.59375 27.871094 C 15.59375 27.871094 15.933594 28.1875 16.382812 27.832031 L 25.386719 20.171875 C 25.570312 20.023438 25.585938 19.765625 25.417969 19.601562 L 23.402344 17.671875 L 15.796875 9.976562 C 15.71875 9.894531 15.605469 9.851562 15.492188 9.847656 Z M 15.492188 9.847656 "/>
</g>
</svg>
